<?xml version="1.0" encoding="UTF-8" standalone="no"?>
<svg xmlns:dc="http://purl.org/dc/elements/1.1/" xmlns:cc="http://creativecommons.org/ns#" xmlns:rdf="http://www.w3.org/1999/02/22-rdf-syntax-ns#" xmlns:svg="http://www.w3.org/2000/svg" xmlns="http://www.w3.org/2000/svg" xmlns:xlink="http://www.w3.org/1999/xlink" id="svg71" version="1.0" height="128" width="128">
  <metadata id="metadata75">
    <rdf:RDF>
      <cc:Work rdf:about="">
        <dc:format>image/svg+xml</dc:format>
        <dc:type rdf:resource="http://purl.org/dc/dcmitype/StillImage" />
        <dc:title></dc:title>
      </cc:Work>
    </rdf:RDF>
  </metadata>
  <defs id="defs41">
    <linearGradient id="e">
      <stop id="stop2" stop-color="#e5a50a" offset="0" />
      <stop id="stop4" stop-opacity=".965" stop-color="#f9cf69" offset=".042" />
      <stop id="stop6" stop-opacity=".965" stop-color="#f6ba29" offset=".097" />
      <stop id="stop8" stop-opacity=".996" stop-color="#f6ba2b" offset=".921" />
      <stop id="stop10" stop-color="#f9cf69" offset=".974" />
      <stop id="stop12" stop-opacity=".828" stop-color="#e5a50a" offset="1" />
    </linearGradient>
    <linearGradient id="d">
      <stop id="stop15" stop-color="#e5a50a" offset="0" />
      <stop id="stop17" stop-opacity=".965" stop-color="#f6ba29" offset=".035" />
      <stop id="stop19" stop-color="#f6bb2c" offset=".962" />
      <stop id="stop21" stop-opacity=".828" stop-color="#e5a50a" offset="1" />
    </linearGradient>
    <linearGradient id="a">
      <stop id="stop24" stop-color="#d5d3cf" offset="0" />
      <stop id="stop26" stop-color="#f6f5f4" offset="1" />
    </linearGradient>
    <linearGradient id="b">
      <stop id="stop29" stop-color="#d5d3cf" offset="0" />
      <stop id="stop31" stop-color="#949390" offset="1" />
    </linearGradient>
    <linearGradient id="c">
      <stop id="stop34" stop-color="#9a9996" offset="0" />
      <stop id="stop36" stop-color="#77767b" offset="1" />
    </linearGradient>
    <linearGradient gradientUnits="userSpaceOnUse" y2="196.232" x2="110.132" y1="196.232" x1="18" id="g" xlink:href="#d" />
    <linearGradient y2="196.232" x2="116" y1="196.232" x1="12" gradientUnits="userSpaceOnUse" id="f" xlink:href="#e" />
  </defs>
  <g id="g69" transform="translate(0 -172)">
    <rect id="rect43" fill="url(#f)" style="marker:none;font-variant-east_asian:normal" width="104" height="104" x="12" y="184" rx="8.721" ry="8.721" />
    <rect id="rect45" fill="#f9f06b" ry="8" rx="8" y="184" x="12" height="76" width="104" style="marker:none" />
    <rect id="rect47" fill="url(#g)" style="marker:none" width="92" height="64" x="18" y="190" rx="2" ry="2" />
    <rect id="rect49" fill="#e5a50a" ry="2" rx="2" y="214" x="18" height="40" width="92" style="marker:none" />
    <path id="path51" fill="#f6f5f4" style="marker:none" d="M22.204 200.057a2.18 2.18 0 0 0-2.18 2.18L20 254h18v8h52v-8h18l-.055-51.762a2.18 2.18 0 0 0-2.18-2.18H45.88z" />
    <path id="path53" opacity=".1" d="M20.462 200.676l43.169 34.886 43.606-34.886-43.606 37.066z" />
    <path id="path55" fill="#f7f8f9" style="marker:none" d="M22.204 200.676c-.466 0-.897.148-1.251.397l42.678 34.489 42.893-34.315a2.17 2.17 0 0 0-1.467-.57H45.88z" />
    <path id="path57" opacity=".05" d="M63.63 224.84c-4 0-8 1.429-11.064 4.286l-32.542 22.92L20 252v2h88v-2l-33.305-22.874c-3.065-2.857-7.065-4.286-11.064-4.286z" style="marker:none" />
    <path id="path59" fill="#f0f0ee" style="marker:none" d="M63.63 226.84c-4 0-8 1.429-11.064 4.286l-32.542 22.92L38 254v10h52v-10h18l-33.305-22.874c-3.065-2.857-7.065-4.286-11.064-4.286z" />
    <path id="path61" opacity=".12" style="marker:none" d="M22.553 200.676a2.18 2.18 0 0 0-2.02 1.36l33.13 33.546a14.43 14.43 0 0 0 20.633 0l33.129-33.547a2.18 2.18 0 0 0-2.02-1.359H46.229z" />
    <path id="path63" fill="#f6f5f4" style="marker:none" d="M22.553 200.676c-.472 0-.907.151-1.264.406l32.374 32.374a14.558 14.558 0 0 0 20.633 0l32.374-32.374a2.168 2.168 0 0 0-1.264-.406H46.228z" />
    <path id="path65" fill="#f9f06b" d="M38 268v7c0 2.216 1.784 4 4 4h44c2.216 0 4-1.784 4-4v-7c0 2.216-1.784 4-4 4H42c-2.216 0-4-1.784-4-4z" />
    <path id="path67" fill="#c0bfbc" d="M90 264v4c0 2.216-1.784 4-4 4H42c-2.216 0-4-1.784-4-4v-4z" />
  </g>
</svg>
